<mxfile host="app.diagrams.net" modified="2024-01-24T07:19:19.812Z" agent="Mozilla/5.0 (Windows NT 10.0; Win64; x64) AppleWebKit/537.36 (KHTML, like Gecko) Chrome/120.0.0.0 Safari/537.36 Edg/120.0.0.0" version="23.0.0" etag="ykwI2yjohYVlhvVUQPEv" type="github">
  <diagram name="Page-1" id="0_mAVuHp0aves6hZ-hpo">
    <mxGraphModel>
      <root>
        <mxCell id="0" />
        <mxCell id="1" parent="0" />
      </root>
    </mxGraphModel>
  </diagram>
</mxfile>
